<mxfile host="app.diagrams.net" agent="Mozilla/5.0 (Windows NT 10.0; Win64; x64) AppleWebKit/537.36 (KHTML, like Gecko) Chrome/129.0.0.0 Safari/537.36" version="24.7.17">
  <diagram name="PÃ¡gina-1" id="f9Z_mnRSqajW9AsvAXgP">
    <mxGraphModel dx="989" dy="538" grid="1" gridSize="10" guides="1" tooltips="1" connect="1" arrows="1" fold="1" page="1" pageScale="1" pageWidth="827" pageHeight="1169" math="0" shadow="0">
      <root>
        <mxCell id="0" />
        <mxCell id="1" parent="0" />
        <mxCell id="tMEonqaPXTZB2WHjisNH-39" value="" style="rounded=0;whiteSpace=wrap;html=1;strokeColor=#bac8d3;" parent="1" vertex="1">
          <mxGeometry y="120" width="860" height="500" as="geometry" />
        </mxCell>
        <mxCell id="6bn4gTI0IEbVRwhQMOiJ-1" value="" style="rounded=0;whiteSpace=wrap;html=1;fillColor=#ffffff;strokeColor=#bac8d3;" vertex="1" parent="1">
          <mxGeometry x="150" y="120" width="730" height="500" as="geometry" />
        </mxCell>
        <mxCell id="6bn4gTI0IEbVRwhQMOiJ-2" value="devices" style="sketch=0;outlineConnect=0;gradientColor=none;fontColor=#545B64;strokeColor=none;fillColor=#1A1A1A;dashed=0;verticalLabelPosition=bottom;verticalAlign=top;align=center;html=1;fontSize=12;fontStyle=0;aspect=fixed;shape=mxgraph.aws4.illustration_devices;pointerEvents=1" vertex="1" parent="1">
          <mxGeometry x="20" y="333.5" width="100" height="73" as="geometry" />
        </mxCell>
        <mxCell id="6bn4gTI0IEbVRwhQMOiJ-3" value="AWS Cloud" style="text;html=1;align=center;verticalAlign=middle;whiteSpace=wrap;rounded=0;strokeWidth=5;fontSize=15;" vertex="1" parent="1">
          <mxGeometry x="190" y="120" width="90" height="40" as="geometry" />
        </mxCell>
        <mxCell id="6bn4gTI0IEbVRwhQMOiJ-5" value="" style="whiteSpace=wrap;html=1;aspect=fixed;fillColor=#bac8d3;strokeColor=none;" vertex="1" parent="1">
          <mxGeometry x="150" y="120" width="40" height="40" as="geometry" />
        </mxCell>
        <mxCell id="6bn4gTI0IEbVRwhQMOiJ-4" value="" style="html=1;verticalLabelPosition=bottom;align=center;labelBackgroundColor=#ffffff;verticalAlign=top;strokeWidth=2;strokeColor=#FFFFFF;shadow=0;dashed=0;shape=mxgraph.ios7.icons.cloud;fillColor=#bac8d3;" vertex="1" parent="1">
          <mxGeometry x="155" y="130" width="30" height="20" as="geometry" />
        </mxCell>
        <mxCell id="6bn4gTI0IEbVRwhQMOiJ-6" value="" style="rounded=0;whiteSpace=wrap;html=1;strokeColor=#bac8d3;" vertex="1" parent="1">
          <mxGeometry x="190" y="170" width="670" height="300" as="geometry" />
        </mxCell>
        <mxCell id="6bn4gTI0IEbVRwhQMOiJ-7" value="VPC" style="text;html=1;align=center;verticalAlign=middle;whiteSpace=wrap;rounded=0;strokeWidth=5;fontSize=15;" vertex="1" parent="1">
          <mxGeometry x="230" y="170" width="50" height="40" as="geometry" />
        </mxCell>
        <mxCell id="6bn4gTI0IEbVRwhQMOiJ-8" value="" style="whiteSpace=wrap;html=1;aspect=fixed;fillColor=#bac8d3;strokeColor=none;" vertex="1" parent="1">
          <mxGeometry x="190" y="170" width="40" height="40" as="geometry" />
        </mxCell>
        <mxCell id="6bn4gTI0IEbVRwhQMOiJ-9" value="Virtual private&#xa;cloud" style="sketch=0;outlineConnect=0;fontColor=none;gradientColor=none;strokeColor=#FFFFFF;fillColor=none;dashed=0;verticalLabelPosition=bottom;verticalAlign=top;align=center;html=1;fontSize=12;fontStyle=0;aspect=fixed;shape=mxgraph.aws4.resourceIcon;resIcon=mxgraph.aws4.virtual_private_cloud;noLabel=1;" vertex="1" parent="1">
          <mxGeometry x="190" y="170" width="40" height="40" as="geometry" />
        </mxCell>
        <mxCell id="6bn4gTI0IEbVRwhQMOiJ-10" value="" style="rounded=0;whiteSpace=wrap;html=1;fillColor=#f2f6e8;strokeColor=none;" vertex="1" parent="1">
          <mxGeometry x="230" y="228.5" width="250" height="221.5" as="geometry" />
        </mxCell>
        <mxCell id="6bn4gTI0IEbVRwhQMOiJ-13" value="" style="whiteSpace=wrap;html=1;aspect=fixed;fillColor=#7aa116;strokeColor=none;" vertex="1" parent="1">
          <mxGeometry x="230" y="228.5" width="40" height="40" as="geometry" />
        </mxCell>
        <mxCell id="6bn4gTI0IEbVRwhQMOiJ-17" value="Public subnet" style="text;html=1;align=center;verticalAlign=middle;whiteSpace=wrap;rounded=0;strokeWidth=5;fontSize=13;fontColor=#318f22;" vertex="1" parent="1">
          <mxGeometry x="270" y="228.5" width="90" height="40" as="geometry" />
        </mxCell>
        <mxCell id="6bn4gTI0IEbVRwhQMOiJ-19" value="Amazon API Gateway" style="sketch=0;outlineConnect=0;fontColor=#232F3E;gradientColor=none;strokeColor=#ffffff;fillColor=#232F3E;dashed=0;verticalLabelPosition=middle;verticalAlign=bottom;align=center;html=1;whiteSpace=wrap;fontSize=10;fontStyle=1;spacing=3;shape=mxgraph.aws4.productIcon;prIcon=mxgraph.aws4.api_gateway;" vertex="1" parent="1">
          <mxGeometry x="323.75" y="322.88" width="62.5" height="94.25" as="geometry" />
        </mxCell>
        <mxCell id="6bn4gTI0IEbVRwhQMOiJ-21" value="" style="rounded=0;whiteSpace=wrap;html=1;fillColor=#e6f6f7;strokeColor=none;" vertex="1" parent="1">
          <mxGeometry x="490" y="228.5" width="340" height="221.5" as="geometry" />
        </mxCell>
        <mxCell id="6bn4gTI0IEbVRwhQMOiJ-23" value="Private subnet" style="text;html=1;align=center;verticalAlign=middle;whiteSpace=wrap;rounded=0;strokeWidth=5;fontSize=13;fontColor=#3390c3;" vertex="1" parent="1">
          <mxGeometry x="530" y="228.5" width="90" height="40" as="geometry" />
        </mxCell>
        <mxCell id="6bn4gTI0IEbVRwhQMOiJ-28" value="" style="whiteSpace=wrap;html=1;aspect=fixed;fillColor=#00a4a6;strokeColor=none;fillStyle=auto;" vertex="1" parent="1">
          <mxGeometry x="490" y="228.5" width="40" height="40" as="geometry" />
        </mxCell>
        <mxCell id="6bn4gTI0IEbVRwhQMOiJ-37" style="edgeStyle=orthogonalEdgeStyle;rounded=0;orthogonalLoop=1;jettySize=auto;html=1;" edge="1" parent="1" source="6bn4gTI0IEbVRwhQMOiJ-29" target="6bn4gTI0IEbVRwhQMOiJ-30">
          <mxGeometry relative="1" as="geometry" />
        </mxCell>
        <mxCell id="6bn4gTI0IEbVRwhQMOiJ-29" value="Network Load Balancer" style="sketch=0;outlineConnect=0;fontColor=#232F3E;gradientColor=none;strokeColor=#ffffff;fillColor=#232F3E;dashed=0;verticalLabelPosition=middle;verticalAlign=bottom;align=center;html=1;whiteSpace=wrap;fontSize=10;fontStyle=1;spacing=3;shape=mxgraph.aws4.productIcon;prIcon=mxgraph.aws4.network_load_balancer;" vertex="1" parent="1">
          <mxGeometry x="522" y="322.88" width="68" height="94.25" as="geometry" />
        </mxCell>
        <mxCell id="6bn4gTI0IEbVRwhQMOiJ-38" style="edgeStyle=orthogonalEdgeStyle;rounded=0;orthogonalLoop=1;jettySize=auto;html=1;" edge="1" parent="1" source="6bn4gTI0IEbVRwhQMOiJ-30" target="6bn4gTI0IEbVRwhQMOiJ-31">
          <mxGeometry relative="1" as="geometry" />
        </mxCell>
        <mxCell id="6bn4gTI0IEbVRwhQMOiJ-30" value="Amazon EKS" style="sketch=0;outlineConnect=0;fontColor=#232F3E;gradientColor=none;strokeColor=#ffffff;fillColor=#232F3E;dashed=0;verticalLabelPosition=middle;verticalAlign=bottom;align=center;html=1;whiteSpace=wrap;fontSize=10;fontStyle=1;spacing=3;shape=mxgraph.aws4.productIcon;prIcon=mxgraph.aws4.eks;" vertex="1" parent="1">
          <mxGeometry x="630" y="322.88" width="70" height="94.25" as="geometry" />
        </mxCell>
        <mxCell id="6bn4gTI0IEbVRwhQMOiJ-39" style="edgeStyle=orthogonalEdgeStyle;rounded=0;orthogonalLoop=1;jettySize=auto;html=1;" edge="1" parent="1" source="6bn4gTI0IEbVRwhQMOiJ-31" target="6bn4gTI0IEbVRwhQMOiJ-32">
          <mxGeometry relative="1" as="geometry" />
        </mxCell>
        <mxCell id="6bn4gTI0IEbVRwhQMOiJ-31" value="" style="aspect=fixed;sketch=0;html=1;dashed=0;whitespace=wrap;verticalLabelPosition=bottom;verticalAlign=top;fillColor=#2875E2;strokeColor=#ffffff;points=[[0.005,0.63,0],[0.1,0.2,0],[0.9,0.2,0],[0.5,0,0],[0.995,0.63,0],[0.72,0.99,0],[0.5,1,0],[0.28,0.99,0]];shape=mxgraph.kubernetes.icon2;kubernetesLabel=1;prIcon=api;fontColor=default;" vertex="1" parent="1">
          <mxGeometry x="742.05" y="338.38" width="65.89" height="63.25" as="geometry" />
        </mxCell>
        <mxCell id="6bn4gTI0IEbVRwhQMOiJ-32" value="Amazon RDS" style="sketch=0;outlineConnect=0;fontColor=#232F3E;gradientColor=none;strokeColor=#ffffff;fillColor=#232F3E;dashed=0;verticalLabelPosition=middle;verticalAlign=bottom;align=center;html=1;whiteSpace=wrap;fontSize=10;fontStyle=1;spacing=3;shape=mxgraph.aws4.productIcon;prIcon=mxgraph.aws4.rds;" vertex="1" parent="1">
          <mxGeometry x="735" y="500" width="80" height="100" as="geometry" />
        </mxCell>
        <mxCell id="6bn4gTI0IEbVRwhQMOiJ-33" value="Amazon Cognito" style="sketch=0;outlineConnect=0;fontColor=#232F3E;gradientColor=none;strokeColor=#ffffff;fillColor=#232F3E;dashed=0;verticalLabelPosition=middle;verticalAlign=bottom;align=center;html=1;whiteSpace=wrap;fontSize=10;fontStyle=1;spacing=3;shape=mxgraph.aws4.productIcon;prIcon=mxgraph.aws4.cognito;" vertex="1" parent="1">
          <mxGeometry x="315" y="500" width="80" height="110" as="geometry" />
        </mxCell>
        <mxCell id="6bn4gTI0IEbVRwhQMOiJ-34" value="" style="endArrow=classic;html=1;rounded=0;" edge="1" parent="1" source="6bn4gTI0IEbVRwhQMOiJ-19" target="6bn4gTI0IEbVRwhQMOiJ-33">
          <mxGeometry width="50" height="50" relative="1" as="geometry">
            <mxPoint x="390" y="440" as="sourcePoint" />
            <mxPoint x="440" y="390" as="targetPoint" />
            <Array as="points">
              <mxPoint x="355" y="430" />
            </Array>
          </mxGeometry>
        </mxCell>
        <mxCell id="6bn4gTI0IEbVRwhQMOiJ-35" value="" style="endArrow=classic;html=1;rounded=0;" edge="1" parent="1" source="6bn4gTI0IEbVRwhQMOiJ-19" target="6bn4gTI0IEbVRwhQMOiJ-29">
          <mxGeometry width="50" height="50" relative="1" as="geometry">
            <mxPoint x="386.25" y="345" as="sourcePoint" />
            <mxPoint x="436.25" y="295" as="targetPoint" />
          </mxGeometry>
        </mxCell>
        <mxCell id="6bn4gTI0IEbVRwhQMOiJ-40" style="edgeStyle=orthogonalEdgeStyle;rounded=0;orthogonalLoop=1;jettySize=auto;html=1;" edge="1" parent="1" source="6bn4gTI0IEbVRwhQMOiJ-2" target="6bn4gTI0IEbVRwhQMOiJ-19">
          <mxGeometry relative="1" as="geometry" />
        </mxCell>
        <mxCell id="6bn4gTI0IEbVRwhQMOiJ-41" value="" style="sketch=0;aspect=fixed;pointerEvents=1;shadow=0;dashed=0;html=1;strokeColor=#F5F5F5;labelPosition=center;verticalLabelPosition=bottom;verticalAlign=top;align=center;fillColor=none;shape=mxgraph.mscae.enterprise.lock;strokeWidth=2;" vertex="1" parent="1">
          <mxGeometry x="237.67000000000002" y="232.69" width="24.66" height="31.62" as="geometry" />
        </mxCell>
        <mxCell id="6bn4gTI0IEbVRwhQMOiJ-42" value="" style="sketch=0;aspect=fixed;pointerEvents=1;shadow=0;dashed=0;html=1;strokeColor=#F5F5F5;labelPosition=center;verticalLabelPosition=bottom;verticalAlign=top;align=center;fillColor=none;shape=mxgraph.mscae.enterprise.lock;strokeWidth=2;" vertex="1" parent="1">
          <mxGeometry x="497.67" y="232.69" width="24.66" height="31.62" as="geometry" />
        </mxCell>
      </root>
    </mxGraphModel>
  </diagram>
</mxfile>
